<mxfile host="Electron" agent="Mozilla/5.0 (Macintosh; Intel Mac OS X 10_15_7) AppleWebKit/537.36 (KHTML, like Gecko) draw.io/25.0.2 Chrome/128.0.6613.186 Electron/32.2.5 Safari/537.36" version="25.0.2">
  <diagram name="Page-1" id="WNZ-XKO8ZaHE2cqfns8_">
    <mxGraphModel dx="1036" dy="793" grid="1" gridSize="10" guides="1" tooltips="1" connect="1" arrows="1" fold="1" page="1" pageScale="1" pageWidth="827" pageHeight="1169" math="0" shadow="0">
      <root>
        <mxCell id="0" />
        <mxCell id="1" parent="0" />
        <mxCell id="CYiOKiSfskk99Y9TRi6j-1" value="" style="whiteSpace=wrap;html=1;aspect=fixed;" vertex="1" parent="1">
          <mxGeometry x="100" y="310" width="60" height="60" as="geometry" />
        </mxCell>
        <mxCell id="CYiOKiSfskk99Y9TRi6j-2" value="&lt;font style=&quot;font-size: 15px;&quot;&gt;Int&lt;/font&gt;" style="rounded=1;whiteSpace=wrap;html=1;" vertex="1" parent="1">
          <mxGeometry x="140" y="330" width="50" height="20" as="geometry" />
        </mxCell>
        <mxCell id="CYiOKiSfskk99Y9TRi6j-6" value="" style="whiteSpace=wrap;html=1;aspect=fixed;" vertex="1" parent="1">
          <mxGeometry x="350" y="310" width="60" height="60" as="geometry" />
        </mxCell>
        <mxCell id="CYiOKiSfskk99Y9TRi6j-7" value="&lt;font style=&quot;font-size: 15px;&quot;&gt;String&lt;/font&gt;" style="rounded=1;whiteSpace=wrap;html=1;" vertex="1" parent="1">
          <mxGeometry x="390" y="330" width="50" height="20" as="geometry" />
        </mxCell>
        <mxCell id="CYiOKiSfskk99Y9TRi6j-8" value="&lt;font style=&quot;font-size: 15px;&quot;&gt;Int&lt;/font&gt;" style="rounded=1;whiteSpace=wrap;html=1;" vertex="1" parent="1">
          <mxGeometry x="280" y="330" width="50" height="20" as="geometry" />
        </mxCell>
        <mxCell id="CYiOKiSfskk99Y9TRi6j-9" value="" style="whiteSpace=wrap;html=1;aspect=fixed;" vertex="1" parent="1">
          <mxGeometry x="570" y="310" width="60" height="60" as="geometry" />
        </mxCell>
        <mxCell id="CYiOKiSfskk99Y9TRi6j-10" value="&lt;font style=&quot;font-size: 15px;&quot;&gt;String&lt;/font&gt;" style="rounded=1;whiteSpace=wrap;html=1;" vertex="1" parent="1">
          <mxGeometry x="540" y="330" width="50" height="20" as="geometry" />
        </mxCell>
      </root>
    </mxGraphModel>
  </diagram>
</mxfile>
